<?xml version="1.0" standalone="no"?>
<!DOCTYPE svg PUBLIC "-//W3C//DTD SVG 20010904//EN"
 "http://www.w3.org/TR/2001/REC-SVG-20010904/DTD/svg10.dtd">
<svg version="1.0" xmlns="http://www.w3.org/2000/svg"
 width="320.000000pt" height="320.000000pt" viewBox="0 0 320.000000 320.000000"
 preserveAspectRatio="xMidYMid meet">
<metadata>
Created by potrace 1.14, written by Peter Selinger 2001-2017
</metadata>
<g transform="translate(0.000000,320.000000) scale(0.100000,-0.100000)"
fill="#000000" stroke="none">
<path d="M1505 2989 c-58 -13 -56 -12 -105 -37 -61 -31 -117 -94 -151 -169
-33 -72 -40 -107 -41 -206 -1 -80 11 -433 16 -485 3 -27 -6 -48 -43 -102 -42
-62 -161 -217 -186 -244 -19 -20 -64 -120 -78 -176 -18 -65 -50 -151 -76 -200
-85 -159 -102 -212 -89 -281 8 -44 6 -52 -18 -89 -35 -53 -69 -70 -138 -70
-115 0 -131 -27 -121 -198 7 -113 6 -122 -19 -184 -33 -81 -34 -123 -3 -142
30 -19 167 -61 312 -96 66 -16 152 -40 190 -55 202 -77 278 -63 358 67 14 23
26 28 79 35 112 13 307 3 433 -24 39 -8 81 -17 95 -19 42 -8 60 -15 60 -23 0
-20 43 -54 89 -72 100 -38 175 -21 265 60 111 101 150 128 264 186 79 40 122
69 147 98 19 22 35 44 35 48 0 29 -28 64 -88 110 -87 67 -110 100 -122 174
-10 63 -32 105 -55 105 -18 0 -19 -5 6 59 23 63 25 188 3 282 -7 31 -15 67
-18 80 -2 13 -9 35 -14 49 -5 14 -10 28 -11 32 -1 4 -11 29 -22 55 -52 122
-66 144 -148 243 -30 36 -70 87 -89 113 -36 50 -151 277 -158 312 -2 11 -6 72
-9 135 -5 116 -11 192 -21 264 -3 21 -20 72 -39 113 -56 121 -183 228 -295
248 -64 11 -155 13 -195 4z"/>
</g>
</svg>
